<mxfile host="Electron" modified="2023-09-02T20:32:24.863Z" agent="Mozilla/5.0 (Macintosh; Intel Mac OS X 10_15_7) AppleWebKit/537.36 (KHTML, like Gecko) draw.io/21.6.8 Chrome/114.0.5735.289 Electron/25.5.0 Safari/537.36" etag="eR31vjDn18XDPDEM_O6B" version="21.6.8" type="device">
  <diagram name="Page-1" id="i3sJVm_nk5Cq-7f21v-7">
    <mxGraphModel dx="954" dy="629" grid="1" gridSize="10" guides="1" tooltips="1" connect="1" arrows="1" fold="1" page="1" pageScale="1" pageWidth="827" pageHeight="1169" math="0" shadow="0">
      <root>
        <mxCell id="0" />
        <mxCell id="1" parent="0" />
        <mxCell id="svAqoFKXsuclK1eYwe_6-3" style="edgeStyle=orthogonalEdgeStyle;rounded=0;orthogonalLoop=1;jettySize=auto;html=1;entryX=0;entryY=0.5;entryDx=0;entryDy=0;endArrow=none;endFill=0;startArrow=ERoneToMany;startFill=0;" edge="1" parent="1" source="svAqoFKXsuclK1eYwe_6-1" target="svAqoFKXsuclK1eYwe_6-2">
          <mxGeometry relative="1" as="geometry" />
        </mxCell>
        <mxCell id="svAqoFKXsuclK1eYwe_6-1" value="Articles" style="rounded=0;whiteSpace=wrap;html=1;" vertex="1" parent="1">
          <mxGeometry x="160" y="140" width="120" height="60" as="geometry" />
        </mxCell>
        <mxCell id="svAqoFKXsuclK1eYwe_6-2" value="Authors" style="rounded=0;whiteSpace=wrap;html=1;" vertex="1" parent="1">
          <mxGeometry x="380" y="140" width="120" height="60" as="geometry" />
        </mxCell>
        <mxCell id="svAqoFKXsuclK1eYwe_6-9" style="edgeStyle=orthogonalEdgeStyle;rounded=0;orthogonalLoop=1;jettySize=auto;html=1;endArrow=none;endFill=0;" edge="1" parent="1" source="svAqoFKXsuclK1eYwe_6-4" target="svAqoFKXsuclK1eYwe_6-5">
          <mxGeometry relative="1" as="geometry" />
        </mxCell>
        <mxCell id="svAqoFKXsuclK1eYwe_6-4" value="FE" style="rounded=0;whiteSpace=wrap;html=1;" vertex="1" parent="1">
          <mxGeometry x="160" y="280" width="120" height="60" as="geometry" />
        </mxCell>
        <mxCell id="svAqoFKXsuclK1eYwe_6-7" style="edgeStyle=orthogonalEdgeStyle;rounded=0;orthogonalLoop=1;jettySize=auto;html=1;entryX=0.5;entryY=0;entryDx=0;entryDy=0;entryPerimeter=0;" edge="1" parent="1" source="svAqoFKXsuclK1eYwe_6-5" target="svAqoFKXsuclK1eYwe_6-6">
          <mxGeometry relative="1" as="geometry" />
        </mxCell>
        <mxCell id="svAqoFKXsuclK1eYwe_6-5" value="BE" style="rounded=0;whiteSpace=wrap;html=1;" vertex="1" parent="1">
          <mxGeometry x="380" y="280" width="120" height="60" as="geometry" />
        </mxCell>
        <mxCell id="svAqoFKXsuclK1eYwe_6-6" value="SQLite" style="shape=cylinder3;whiteSpace=wrap;html=1;boundedLbl=1;backgroundOutline=1;size=15;" vertex="1" parent="1">
          <mxGeometry x="410" y="400" width="60" height="80" as="geometry" />
        </mxCell>
      </root>
    </mxGraphModel>
  </diagram>
</mxfile>
